<svg width="595" height="244" viewBox="0 0 595 244" fill="none" xmlns="http://www.w3.org/2000/svg">
<rect width="595" height="244" fill="#D98484"/>
<ellipse cx="398" cy="218" rx="8" ry="3" fill="#C76262"/>
<path d="M335.818 157.693C335.818 158.862 336.766 159.809 337.935 159.809C339.104 159.809 340.051 158.862 340.051 157.693C340.051 156.524 339.104 155.576 337.935 155.576C336.766 155.576 335.818 156.524 335.818 157.693Z" fill="black"/>
<path d="M323.119 157.693C323.119 158.862 324.067 159.809 325.236 159.809C326.405 159.809 327.352 158.862 327.352 157.693C327.352 156.524 326.405 155.576 325.236 155.576C324.067 155.576 323.119 156.524 323.119 157.693Z" fill="black"/>
<path d="M378.282 227.621C377.929 227.381 377.031 227.343 377.031 226.888C377.031 226.28 377.397 225.54 377.575 224.999C378.387 222.534 378.957 220.093 379.179 217.497C379.916 208.856 378.812 200.325 378.282 191.719L378.281 191.701C378.076 188.388 377.873 185.097 377.564 181.821C384.123 181.821 390.304 182.449 396.846 182.449C399.798 182.449 402.057 182.617 404.771 183.839C406.815 184.759 410.208 186.201 411.182 188.393C411.858 189.912 412.696 190.974 413.164 192.658C413.749 194.767 413.659 196.872 413.659 199.042C413.659 202.066 413.736 205.101 413.631 208.123L413.628 208.23C413.558 210.276 413.463 213.052 411.898 214.617C410.841 215.674 409.539 216.535 408.458 217.617C407.801 218.274 407.024 218.523 406.229 218.965C405.28 219.492 404.536 220.589 403.753 221.331C401.173 223.776 398.796 225.678 395.03 225.789C392.885 225.852 390.816 226.285 388.645 226.285H383.582C381.356 226.285 380.448 227.621 378.282 227.621Z" fill="white"/>
<path fill-rule="evenodd" clip-rule="evenodd" d="M377.031 226.888C377.031 227.343 377.929 227.381 378.282 227.621C375.64 228.502 371.491 227.364 368.756 227.744C365.287 228.225 361.801 228.588 358.333 229.075C355.906 229.417 353.546 229.456 351.103 229.456C351.031 229.456 350.348 229.511 350.315 229.456L334.715 232.391L320.772 232.88V217.253C320.772 212.66 320.803 208.066 320.772 203.473C320.73 197.392 320.482 190.699 317.728 185.128C317.147 183.952 316.042 183.167 315.173 182.247C313.716 180.704 312.656 178.542 311.586 176.703C309.958 173.906 308.488 171.059 306.694 168.359C304.954 165.742 302.986 163.244 301.394 160.531C300.685 159.324 300.951 159.062 302.046 158.656C304.147 157.878 306.187 155.951 307.808 154.498C311.459 151.225 315.109 148.457 319.196 145.719C320.774 144.662 323.173 142.494 325.175 142.376C325.772 142.341 325.807 141.655 326.045 141.153C328.324 136.341 328.93 131.017 329.089 125.743C329.128 124.441 331.546 124.908 332.513 125.254C338.449 127.374 345.123 126.631 350.954 129.303C357.682 132.387 362.074 137.48 365.902 143.64C368.653 148.068 371.061 152.676 372.669 157.65C373.855 161.317 374.639 165.17 375.537 168.916C376.563 173.197 377.156 177.495 377.564 181.821C377.873 185.097 378.076 188.388 378.281 191.701L378.282 191.719C378.812 200.325 379.916 208.856 379.179 217.497C378.957 220.093 378.387 222.534 377.575 224.999C377.397 225.54 377.031 226.28 377.031 226.888ZM337.935 159.809C336.766 159.809 335.818 158.862 335.818 157.693C335.818 156.524 336.766 155.576 337.935 155.576C339.104 155.576 340.051 156.524 340.051 157.693C340.051 158.862 339.104 159.809 337.935 159.809ZM325.236 159.809C324.067 159.809 323.119 158.862 323.119 157.693C323.119 156.524 324.067 155.576 325.236 155.576C326.405 155.576 327.352 156.524 327.352 157.693C327.352 158.862 326.405 159.809 325.236 159.809Z" fill="white"/>
<path d="M335.818 157.693C335.818 158.862 336.766 159.809 337.935 159.809C339.104 159.809 340.051 158.862 340.051 157.693C340.051 156.524 339.104 155.576 337.935 155.576C336.766 155.576 335.818 156.524 335.818 157.693Z" fill="black"/>
<path d="M323.119 157.693C323.119 158.862 324.067 159.809 325.236 159.809C326.405 159.809 327.352 158.862 327.352 157.693C327.352 156.524 326.405 155.576 325.236 155.576C324.067 155.576 323.119 156.524 323.119 157.693Z" fill="black"/>
<path d="M378.282 227.621C377.929 227.381 377.031 227.343 377.031 226.888C377.031 226.28 377.397 225.54 377.575 224.999C378.387 222.534 378.957 220.093 379.179 217.497C379.916 208.856 378.812 200.325 378.282 191.719L378.281 191.701C378.076 188.388 377.873 185.097 377.564 181.821M378.282 227.621C375.64 228.502 371.491 227.364 368.756 227.744C365.287 228.225 361.801 228.588 358.333 229.075C355.906 229.417 353.546 229.456 351.103 229.456C351.031 229.456 350.348 229.511 350.315 229.456C349.792 228.584 353.262 224.778 353.739 224.047C356.381 220.007 358.092 215.151 359.882 210.676C360.728 208.56 361.419 206.368 362.355 204.289C362.79 203.322 363.089 202.623 363.089 201.571M378.282 227.621C380.448 227.621 381.356 226.285 383.582 226.285H388.645C390.816 226.285 392.885 225.852 395.03 225.789M377.564 181.821C377.156 177.495 376.563 173.197 375.537 168.916C374.639 165.17 373.855 161.317 372.669 157.65C371.061 152.676 368.653 148.068 365.902 143.64C362.074 137.48 357.682 132.387 350.954 129.303C345.123 126.631 338.449 127.374 332.513 125.254C331.546 124.908 329.128 124.441 329.089 125.743C328.93 131.017 328.324 136.341 326.045 141.153C325.807 141.655 325.772 142.341 325.175 142.376C323.173 142.494 320.774 144.662 319.196 145.719C315.109 148.457 311.459 151.225 307.808 154.498C306.187 155.951 304.147 157.878 302.046 158.656C300.951 159.062 300.685 159.324 301.394 160.531C302.986 163.244 304.954 165.742 306.694 168.359C308.488 171.059 309.958 173.906 311.586 176.703C312.656 178.542 313.716 180.704 315.173 182.247C316.042 183.167 317.147 183.952 317.728 185.128C320.482 190.699 320.73 197.392 320.772 203.473C320.803 208.066 320.772 212.66 320.772 217.253V232.88M377.564 181.821C384.123 181.821 390.304 182.449 396.846 182.449C399.798 182.449 402.057 182.617 404.771 183.839C406.815 184.759 410.208 186.201 411.182 188.393C411.858 189.912 412.696 190.974 413.164 192.658C413.749 194.767 413.659 196.872 413.659 199.042C413.659 202.066 413.736 205.101 413.631 208.123L413.628 208.23C413.558 210.276 413.463 213.052 411.898 214.617C410.841 215.674 409.539 216.535 408.458 217.617C407.801 218.274 407.024 218.523 406.229 218.965C405.28 219.492 404.536 220.589 403.753 221.331C401.173 223.776 398.796 225.678 395.03 225.789M334.715 232.391V222.512C334.715 218.504 334.654 214.502 334.429 210.499C334.208 206.564 333.571 202.628 333.492 198.69C333.432 195.739 333.492 192.782 333.492 189.83M395.03 225.789C396.762 224.635 393.845 221.891 394.809 220.203C395.054 219.774 394.985 218.855 395.112 218.346C395.284 217.656 396.025 217.025 396.075 216.323C396.168 215.024 396.571 213.883 396.571 212.526V208.233C396.571 206.519 396.645 204.784 396.543 203.073C396.379 200.322 395.652 197.58 395.58 194.832C395.528 192.869 395.789 191.412 394.617 189.741C394.097 189 394.342 187.755 394.342 186.879V182.421M335.818 157.693C335.818 158.862 336.766 159.809 337.935 159.809C339.104 159.809 340.051 158.862 340.051 157.693C340.051 156.524 339.104 155.576 337.935 155.576C336.766 155.576 335.818 156.524 335.818 157.693ZM323.119 157.693C323.119 158.862 324.067 159.809 325.236 159.809C326.405 159.809 327.352 158.862 327.352 157.693C327.352 156.524 326.405 155.576 325.236 155.576C324.067 155.576 323.119 156.524 323.119 157.693Z" stroke="black" stroke-width="5"/>
<path d="M184.818 149.677C184.818 150.846 185.766 151.793 186.935 151.793C188.104 151.793 189.051 150.846 189.051 149.677C189.051 148.508 188.104 147.56 186.935 147.56C185.766 147.56 184.818 148.508 184.818 149.677Z" fill="black"/>
<path d="M172.119 149.677C172.119 150.846 173.067 151.793 174.236 151.793C175.404 151.793 176.352 150.846 176.352 149.677C176.352 148.508 175.404 147.56 174.236 147.56C173.067 147.56 172.119 148.508 172.119 149.677Z" fill="black"/>
<path d="M227.282 219.605C226.929 219.365 226.031 219.327 226.031 218.872C226.031 218.264 226.397 217.524 226.575 216.983C227.387 214.517 227.957 212.077 228.178 209.481C228.916 200.84 227.812 192.309 227.282 183.703L227.281 183.685C227.076 180.372 226.873 177.081 226.564 173.805C233.123 173.805 239.304 174.433 245.846 174.433C248.798 174.433 251.057 174.601 253.771 175.823C255.815 176.742 259.208 178.185 260.182 180.377C260.858 181.896 261.696 182.957 262.164 184.642C262.749 186.751 262.659 188.855 262.659 191.026C262.659 194.049 262.736 197.085 262.631 200.107L262.628 200.214C262.558 202.26 262.463 205.036 260.898 206.601C259.841 207.658 258.539 208.519 257.458 209.6C256.801 210.257 256.024 210.507 255.229 210.949C254.28 211.476 253.536 212.573 252.753 213.315C250.173 215.759 247.796 217.662 244.03 217.773C241.885 217.836 239.816 218.268 237.645 218.268H232.582C230.356 218.268 229.448 219.605 227.282 219.605Z" fill="white"/>
<path fill-rule="evenodd" clip-rule="evenodd" d="M226.031 218.872C226.031 219.327 226.929 219.365 227.282 219.605C224.64 220.486 220.491 219.348 217.756 219.728C214.287 220.209 210.801 220.572 207.333 221.059C204.906 221.401 202.546 221.44 200.103 221.44C200.031 221.44 199.348 221.495 199.315 221.44L183.715 224.375L169.772 224.864V209.237C169.772 204.644 169.803 200.05 169.772 195.457C169.73 189.376 169.482 182.683 166.728 177.112C166.147 175.936 165.042 175.151 164.173 174.231C162.716 172.688 161.656 170.526 160.586 168.686C158.958 165.89 157.488 163.043 155.694 160.343C153.954 157.726 151.986 155.228 150.394 152.515C149.685 151.308 149.951 151.046 151.046 150.64C153.147 149.862 155.187 147.935 156.808 146.482C160.459 143.209 164.109 140.441 168.196 137.703C169.774 136.646 172.173 134.478 174.175 134.36C174.772 134.325 174.807 133.639 175.045 133.137C177.324 128.325 177.93 123.001 178.089 117.727C178.128 116.425 180.546 116.892 181.513 117.238C187.449 119.358 194.123 118.615 199.954 121.287C206.682 124.371 211.074 129.464 214.902 135.624C217.653 140.052 220.061 144.66 221.669 149.634C222.855 153.301 223.639 157.154 224.537 160.9C225.563 165.181 226.156 169.479 226.564 173.805C226.873 177.081 227.076 180.372 227.281 183.685L227.282 183.703C227.812 192.309 228.916 200.84 228.178 209.481C227.957 212.077 227.387 214.517 226.575 216.983C226.397 217.524 226.031 218.264 226.031 218.872ZM186.935 151.793C185.766 151.793 184.818 150.846 184.818 149.677C184.818 148.508 185.766 147.56 186.935 147.56C188.104 147.56 189.051 148.508 189.051 149.677C189.051 150.846 188.104 151.793 186.935 151.793ZM174.236 151.793C173.067 151.793 172.119 150.846 172.119 149.677C172.119 148.508 173.067 147.56 174.236 147.56C175.404 147.56 176.352 148.508 176.352 149.677C176.352 150.846 175.404 151.793 174.236 151.793Z" fill="white"/>
<path d="M184.818 149.677C184.818 150.846 185.766 151.793 186.935 151.793C188.104 151.793 189.051 150.846 189.051 149.677C189.051 148.508 188.104 147.56 186.935 147.56C185.766 147.56 184.818 148.508 184.818 149.677Z" fill="black"/>
<path d="M172.119 149.677C172.119 150.846 173.067 151.793 174.236 151.793C175.404 151.793 176.352 150.846 176.352 149.677C176.352 148.508 175.404 147.56 174.236 147.56C173.067 147.56 172.119 148.508 172.119 149.677Z" fill="black"/>
<path d="M227.282 219.605C226.929 219.365 226.031 219.327 226.031 218.872C226.031 218.264 226.397 217.524 226.575 216.983C227.387 214.517 227.957 212.077 228.178 209.481C228.916 200.84 227.812 192.309 227.282 183.703L227.281 183.685C227.076 180.372 226.873 177.081 226.564 173.805M227.282 219.605C224.64 220.486 220.491 219.348 217.756 219.728C214.287 220.209 210.801 220.572 207.333 221.059C204.906 221.401 202.546 221.44 200.103 221.44C200.031 221.44 199.348 221.495 199.315 221.44C198.792 220.568 202.262 216.762 202.739 216.031C205.381 211.991 207.092 207.135 208.882 202.66C209.728 200.544 210.419 198.352 211.355 196.273C211.79 195.306 212.089 194.607 212.089 193.555M227.282 219.605C229.448 219.605 230.356 218.268 232.582 218.268H237.645C239.816 218.268 241.885 217.836 244.03 217.773M226.564 173.805C226.156 169.479 225.563 165.181 224.537 160.9C223.639 157.154 222.855 153.301 221.669 149.634C220.061 144.66 217.653 140.052 214.902 135.624C211.074 129.464 206.682 124.371 199.954 121.287C194.123 118.615 187.449 119.358 181.513 117.238C180.546 116.892 178.128 116.425 178.089 117.727C177.93 123.001 177.324 128.325 175.045 133.137C174.807 133.639 174.772 134.325 174.175 134.36C172.173 134.478 169.774 136.646 168.196 137.703C164.109 140.441 160.459 143.209 156.808 146.482C155.187 147.935 153.147 149.862 151.046 150.64C149.951 151.046 149.685 151.308 150.394 152.515C151.986 155.228 153.954 157.726 155.694 160.343C157.488 163.043 158.958 165.89 160.586 168.686C161.656 170.526 162.716 172.688 164.173 174.231C165.042 175.151 166.147 175.936 166.728 177.112C169.482 182.683 169.73 189.376 169.772 195.457C169.803 200.05 169.772 204.644 169.772 209.237V224.864M226.564 173.805C233.123 173.805 239.304 174.433 245.846 174.433C248.798 174.433 251.057 174.601 253.771 175.823C255.815 176.742 259.208 178.185 260.182 180.377C260.858 181.896 261.696 182.957 262.164 184.642C262.749 186.751 262.659 188.855 262.659 191.026C262.659 194.049 262.736 197.085 262.631 200.107L262.628 200.214C262.558 202.26 262.463 205.036 260.898 206.601C259.841 207.658 258.539 208.519 257.458 209.6C256.801 210.257 256.024 210.507 255.229 210.949C254.28 211.476 253.536 212.573 252.753 213.315C250.173 215.759 247.796 217.662 244.03 217.773M183.715 224.375V214.496C183.715 210.488 183.654 206.486 183.429 202.483C183.208 198.548 182.571 194.612 182.491 190.674C182.432 187.723 182.491 184.766 182.491 181.814M244.03 217.773C245.762 216.618 242.845 213.875 243.809 212.187C244.054 211.758 243.985 210.839 244.112 210.33C244.284 209.64 245.025 209.009 245.075 208.307C245.168 207.008 245.571 205.867 245.571 204.51V200.217C245.571 198.503 245.645 196.768 245.543 195.057C245.379 192.306 244.652 189.564 244.58 186.816C244.528 184.853 244.789 183.395 243.617 181.725C243.097 180.984 243.342 179.739 243.342 178.863V174.404M184.818 149.677C184.818 150.846 185.766 151.793 186.935 151.793C188.104 151.793 189.051 150.846 189.051 149.677C189.051 148.508 188.104 147.56 186.935 147.56C185.766 147.56 184.818 148.508 184.818 149.677ZM172.119 149.677C172.119 150.846 173.067 151.793 174.236 151.793C175.404 151.793 176.352 150.846 176.352 149.677C176.352 148.508 175.404 147.56 174.236 147.56C173.067 147.56 172.119 148.508 172.119 149.677Z" stroke="black" stroke-width="5"/>
<path d="M308.294 41.9369C308.242 42.593 307.667 43.082 307.011 43.0291C306.355 42.9763 305.866 42.4016 305.919 41.7455C305.972 41.0895 306.546 40.6005 307.202 40.6533C307.858 40.7062 308.347 41.2809 308.294 41.9369Z" fill="black"/>
<path d="M315.422 42.5112C315.369 43.1672 314.794 43.6562 314.138 43.6034C313.482 43.5505 312.993 42.9758 313.046 42.3198C313.099 41.6637 313.674 41.1747 314.33 41.2276C314.986 41.2805 315.475 41.8551 315.422 42.5112Z" fill="black"/>
<path d="M281.3 79.2636C281.509 79.1444 282.014 79.1638 282.035 78.9083C282.062 78.567 281.891 78.1354 281.815 77.8235C281.471 76.4033 281.261 75.0079 281.254 73.541C281.231 68.6578 282.236 63.9195 282.924 59.1134L282.925 59.1037C283.189 57.2535 283.452 55.4153 283.774 53.5911C280.093 53.2945 276.595 53.3672 272.924 53.0714C271.267 52.9379 269.991 52.9303 268.413 53.4929C267.224 53.9168 265.254 54.573 264.609 55.759C264.161 56.5813 263.643 57.139 263.304 58.0632C262.88 59.2204 262.835 60.4057 262.737 61.6239C262.6 63.3207 262.42 65.0208 262.342 66.7216L262.339 66.7819C262.286 67.9335 262.214 69.4959 263.021 70.4448C263.567 71.086 264.258 71.6281 264.816 72.2838C265.155 72.6822 265.58 72.8576 266.006 73.1413C266.515 73.4802 266.883 74.1296 267.289 74.5815C268.626 76.0699 269.875 77.2454 271.983 77.4779C273.184 77.6103 274.326 77.9464 275.544 78.0446L278.386 78.2735C279.635 78.3742 280.084 79.1656 281.3 79.2636Z" fill="white"/>
<path fill-rule="evenodd" clip-rule="evenodd" d="M282.035 78.9083C282.014 79.1638 281.509 79.1444 281.3 79.2636C282.743 79.8773 285.123 79.426 286.641 79.763C288.566 80.1901 290.506 80.5511 292.43 80.9817C293.777 81.283 295.1 81.4117 296.471 81.5222C296.511 81.5255 296.892 81.5873 296.913 81.5578L305.536 83.9107L313.339 84.8158L314.046 76.0449C314.253 73.4672 314.444 70.8874 314.669 68.3113C314.967 64.9 315.409 61.1549 317.207 58.1527C317.586 57.519 318.242 57.1283 318.771 56.6513C319.659 55.851 320.351 54.6856 321.035 53.7018C322.075 52.206 323.029 50.6743 324.158 49.2401C325.253 47.85 326.47 46.5371 327.487 45.0867C327.939 44.4411 327.801 44.2818 327.205 44.0047C326.061 43.4729 325.003 42.2991 324.16 41.4103C322.259 39.4082 320.335 37.6897 318.165 35.9684C317.327 35.3037 316.079 33.9784 314.961 33.8218C314.627 33.7751 314.639 33.3887 314.528 33.0961C313.466 30.2924 313.366 27.2767 313.516 24.3096C313.553 23.577 312.175 23.73 311.616 23.8802C308.189 24.8015 304.477 24.0828 301.084 25.3191C297.168 26.7456 294.473 29.4051 292.046 32.6894C290.301 35.0503 288.742 37.5278 287.614 40.2467C286.783 42.2509 286.168 44.3781 285.495 46.4397C284.726 48.7962 284.199 51.1815 283.774 53.5911C283.452 55.4153 283.189 57.2535 282.925 59.1037L282.924 59.1134C282.236 63.9195 281.231 68.6578 281.254 73.541C281.261 75.0079 281.471 76.4033 281.815 77.8235C281.891 78.1354 282.062 78.567 282.035 78.9083ZM307.011 43.0291C307.667 43.082 308.242 42.593 308.294 41.9369C308.347 41.2809 307.858 40.7062 307.202 40.6533C306.546 40.6005 305.972 41.0895 305.919 41.7455C305.866 42.4016 306.355 42.9763 307.011 43.0291ZM314.138 43.6034C314.794 43.6562 315.369 43.1672 315.422 42.5112C315.475 41.8551 314.986 41.2805 314.33 41.2276C313.674 41.1747 313.099 41.6637 313.046 42.3198C312.993 42.9758 313.482 43.5505 314.138 43.6034Z" fill="white"/>
<path d="M281.198 80.5264C281.407 80.4072 281.913 80.4266 281.933 80.1711C281.961 79.8299 281.789 79.3982 281.713 79.0864C281.369 77.6661 281.16 76.2707 281.153 74.8038C281.13 69.9206 282.135 65.1823 282.822 60.3762L282.823 60.3665C283.088 58.5163 283.35 56.6781 283.672 54.8539M281.198 80.5264C282.641 81.1401 285.021 80.6888 286.539 81.0258C288.464 81.453 290.404 81.8139 292.329 82.2446C293.675 82.5458 294.998 82.6746 296.369 82.785C296.409 82.7883 296.79 82.8501 296.811 82.8207C297.145 82.3548 295.369 80.0621 295.134 79.6303C293.834 77.2432 293.094 74.4402 292.291 71.8477C291.912 70.6222 291.623 69.3604 291.192 68.1513C290.992 67.5891 290.856 67.1832 290.903 66.5927M281.198 80.5264C279.982 80.4284 279.533 79.637 278.284 79.5364L275.442 79.3074C274.224 79.2093 273.082 78.8731 271.881 78.7407M283.672 54.8539C284.097 52.4443 284.624 50.059 285.394 47.7025C286.067 45.6409 286.681 43.5137 287.512 41.5095C288.64 38.7906 290.199 36.3132 291.944 33.9523C294.371 30.668 297.066 28.0084 300.982 26.5819C304.375 25.3456 308.087 26.0643 311.515 25.143C312.073 24.9928 313.451 24.8399 313.414 25.5724C313.265 28.5395 313.364 31.5553 314.426 34.3589C314.537 34.6515 314.525 35.0379 314.859 35.0846C315.977 35.2412 317.226 36.5665 318.063 37.2312C320.233 38.9525 322.157 40.671 324.058 42.6731C324.902 43.562 325.96 44.7358 327.104 45.2675C327.7 45.5446 327.837 45.704 327.385 46.3495C326.369 47.7999 325.151 49.1129 324.056 50.5029C322.927 51.9372 321.973 53.4688 320.933 54.9646C320.249 55.9485 319.557 57.1138 318.669 57.9141C318.14 58.3911 317.485 58.7818 317.105 59.4155C315.307 62.4177 314.865 66.1628 314.567 69.5741C314.342 72.1503 314.152 74.73 313.944 77.3077L313.237 86.0786M283.672 54.8539C279.991 54.5573 276.493 54.63 272.822 54.3342C271.165 54.2007 269.89 54.1931 268.311 54.7558C267.122 55.1796 265.153 55.8358 264.507 57.0218C264.059 57.8441 263.541 58.4018 263.202 59.3261C262.778 60.4832 262.734 61.6685 262.635 62.8867C262.499 64.5836 262.318 66.2836 262.24 67.9845L262.237 68.0447C262.184 69.1963 262.112 70.7587 262.919 71.7076C263.465 72.3489 264.156 72.8909 264.714 73.5466C265.053 73.945 265.478 74.1204 265.904 74.4041C266.413 74.743 266.781 75.3924 267.187 75.8443C268.525 77.3327 269.773 78.5082 271.881 78.7407M305.434 85.1735L305.881 79.6288C306.062 77.3794 306.277 75.136 306.584 72.8996C306.886 70.7013 307.422 68.521 307.645 66.3142C307.812 64.6607 307.912 62.9984 308.045 61.3415M271.881 78.7407C270.962 78.0143 272.723 76.6067 272.258 75.6155C272.14 75.3638 272.22 74.8508 272.172 74.5594C272.106 74.1646 271.719 73.7767 271.723 73.3807C271.729 72.6474 271.555 71.9888 271.616 71.227L271.811 68.8177C271.888 67.8557 271.925 66.8789 272.059 65.9232C272.276 64.3866 272.808 62.8802 272.973 61.3413C273.09 60.2422 273.01 59.4122 273.743 58.5277C274.068 58.1354 273.987 57.4257 274.027 56.9339L274.229 54.4315" stroke="black" stroke-width="3"/>
<path d="M212.091 133.334C212.091 120.273 212.452 107.054 213.637 94.0528C213.986 90.2189 216.893 82.3181 216.893 78.4702M216.893 78.4702C204.951 76.0065 194.331 71.0984 182.79 67.7571C179.915 66.9247 176.966 66.8644 174 66.8644M216.893 78.4702C248.655 85.023 280.822 84.6261 312.892 88.331C320.439 89.2029 327.822 89.4071 335.396 89.5078C338.9 89.5544 342.027 90.7865 345.407 90.9687C347.59 91.0863 349.813 90.9687 352 90.9687M315.863 88.6417C315.863 92.1606 316.436 99.6258 315.863 103.102C315.289 106.583 313.591 109.541 312.363 112.801C310.404 118 309.065 123.592 307.968 129.033C306.51 136.262 305.852 143.513 305.852 150.864" stroke="black" stroke-width="10" stroke-linecap="round"/>
<path d="M227.232 55.4066C227.235 55.5084 226.116 54.2734 225.998 54.3323C225.733 54.3962 225.445 54.5364 225.215 54.6838C225.121 54.7445 225.089 54.8549 224.997 54.9093C224.903 54.9642 224.855 55.0914 224.784 54.9225C224.696 54.7137 224.671 54.4827 224.705 54.2593C224.771 53.8177 224.913 53.3746 225.088 52.9454C223.676 52.1482 222.041 51.6491 220.474 51.3944C218.134 51.0141 215.398 51.3745 213.331 52.5748C211.752 53.4918 210.888 54.8298 210.367 56.5805C210.037 57.6889 209.989 58.8158 210.002 59.9627C210.017 61.2341 210.106 62.5083 210.36 63.7561C210.647 65.1681 211.098 66.7285 211.945 67.9209C212.828 69.1639 214.152 70.0793 215.344 71.0014C216.325 71.7606 217.3 72.4699 218.468 72.9214C219.792 73.4337 221.171 73.7751 222.596 73.7835C225.721 73.8019 228.715 73.0739 231.512 71.6945C232.459 71.2277 233.331 70.6473 234.192 70.0398C234.944 69.5085 235.752 68.9356 236.35 68.226C237.826 66.4766 237.498 63.8271 237.498 61.7069V59.4123C237.498 59.1099 237.546 58.7606 237.478 58.4639C237.114 56.8893 235.616 55.3623 234.149 54.77C232.9 54.2659 231.518 54.2659 230.193 54.266L230.153 54.266H227.915C227.553 54.266 227.168 54.2386 226.788 54.245C227.045 54.5683 227.215 54.9446 227.232 55.4066Z" fill="white"/>
<path d="M225.998 54.3323C226.116 54.2734 227.235 55.5084 227.232 55.4066C227.215 54.9446 227.045 54.5683 226.788 54.245M225.998 54.3323C225.733 54.3962 225.445 54.5364 225.215 54.6838C225.121 54.7445 225.089 54.8549 224.997 54.9093C224.903 54.9642 224.855 55.0914 224.784 54.9225C224.696 54.7137 224.671 54.4827 224.705 54.2593C224.771 53.8177 224.913 53.3746 225.088 52.9454M225.998 54.3323C226.251 54.2713 226.518 54.2495 226.788 54.245M237.498 61.7069C237.498 63.8271 237.826 66.4766 236.35 68.226C235.752 68.9356 234.944 69.5085 234.192 70.0398C233.331 70.6473 232.459 71.2277 231.512 71.6945C228.715 73.0739 225.721 73.8019 222.596 73.7835C221.171 73.7751 219.792 73.4337 218.468 72.9214C217.3 72.4699 216.325 71.7606 215.344 71.0014C214.152 70.0793 212.828 69.1639 211.945 67.9209C211.098 66.7285 210.647 65.1681 210.36 63.7561C210.106 62.5083 210.017 61.2341 210.002 59.9627C209.989 58.8158 210.037 57.6889 210.367 56.5805C210.888 54.8298 211.752 53.4918 213.331 52.5748C215.398 51.3745 218.134 51.0141 220.474 51.3944C222.041 51.6491 223.676 52.1482 225.088 52.9454M237.498 61.7069C237.498 60.942 237.498 60.1772 237.498 59.4123M237.498 61.7069V59.4123M237.498 59.4123C237.498 59.1099 237.546 58.7606 237.478 58.4639C237.114 56.8893 235.616 55.3623 234.149 54.77C232.9 54.2659 231.518 54.2659 230.193 54.266M230.153 54.266C229.407 54.266 228.661 54.266 227.915 54.266M230.153 54.266L230.193 54.266M230.153 54.266H227.915M230.153 54.266C230.166 54.266 230.18 54.266 230.193 54.266M227.915 54.266C227.553 54.266 227.168 54.2386 226.788 54.245M231.648 43.8805C231.173 43.8805 230.967 44.2829 230.7 44.6365C229.904 45.6914 229.019 46.6691 228.243 47.7435C227.284 49.0703 226.317 50.4269 225.577 51.8918C225.408 52.2267 225.236 52.581 225.088 52.9454M225.088 52.9454C225.381 53.1106 225.664 53.2887 225.935 53.4801C226.258 53.7082 226.558 53.9553 226.788 54.245" stroke="black" stroke-width="3" stroke-linecap="round"/>
</svg>
